<svg width="21" height="19" viewBox="0 0 21 19" fill="none" xmlns="http://www.w3.org/2000/svg">
<path fill-rule="evenodd" clip-rule="evenodd" d="M3.12498 0.190334C2.91627 0.293208 2.6714 0.492083 2.58073 0.632053C2.49019 0.772142 1.87247 2.46007 1.20805 4.38316L0 7.87946L0.0336609 12.5887L0.0673141 17.2979L0.503227 17.7337C0.873005 18.1032 1.03514 18.1773 1.56989 18.2202C2.089 18.2619 2.27401 18.2214 2.61546 17.9912C3.11774 17.6527 3.44462 17.0422 3.44485 16.4423L3.44509 15.9979H10.1267H16.8083L16.863 16.6582C16.9099 17.2216 16.9804 17.381 17.3434 17.744C17.702 18.1026 17.868 18.1775 18.3995 18.2202C18.9186 18.2619 19.1036 18.2214 19.4451 17.9912C20.2703 17.435 20.2744 17.4085 20.2745 12.4423L20.2747 7.99786L19.07 4.50156C18.4073 2.57859 17.7631 0.857829 17.6384 0.677563C17.1571 -0.0179039 17.3301 -0.00237923 10.1177 0.000583735C4.33576 0.00295411 3.45671 0.0267789 3.12498 0.190334ZM4.63028 2.16366C4.38672 2.28479 4.23572 2.60633 3.78227 3.9693C3.17012 5.8093 3.12415 6.10677 3.39259 6.48994L3.577 6.75341H9.952C15.9774 6.75341 16.3377 6.74156 16.523 6.53664C16.8211 6.20728 16.7586 5.77599 16.151 3.96823C15.6933 2.60645 15.5401 2.28278 15.2969 2.1626C14.8699 1.95152 5.05446 1.95246 4.63028 2.16366ZM3.51668 9.24976C2.27117 9.61184 1.93221 11.2108 2.91757 12.076C3.92379 12.9594 5.57843 12.18 5.57843 10.8225C5.57843 9.82008 4.46814 8.97314 3.51668 9.24976ZM15.9143 9.24918C14.535 9.54512 14.2665 11.6091 15.5228 12.2587C16.6164 12.8243 17.9035 12.0584 17.9035 10.8423C17.9035 9.79602 16.9446 9.02814 15.9143 9.24918Z" fill="white"/>
</svg>
