<svg width="430" height="604" viewBox="0 0 430 604" fill="none" xmlns="http://www.w3.org/2000/svg">
<path d="M13.4438 537.406L14.3837 533.894L13.5158 532.507L15.0902 526.865L14.0981 521.676L12.2283 516.633L11.122 511.438L11.5702 504.815L12.9435 499.329L14.632 494.281L15.9196 488.93L3.45005 486.692L2.05696 486.842L1.61743 488.546L1.32192 496.483L0.58688 497.51L-0.55788 497.735L-2.05527 499.436L-3.66813 501.73L-5.48089 502.797L-7.29365 502.381L-8.89658 500.129L-10.2326 495.032L-10.0699 490.124L-9.33486 485.155L-8.89534 479.823L-6.70139 475.792L-1.82557 475.056L3.10737 476.511L5.58812 479.121L4.01375 479.539L2.74481 480.6L0.703594 483.317L1.06615 485.614L8.05024 486.642L14.4421 488.17L16.8086 487.21L16.5417 483.308L14.385 476.31L12.8776 467.497L11.9998 458.692L12.2283 456.329L13.2774 453.427L13.5158 451.649L13.3159 449.015L11.9998 443.845L10.9407 434.526L10.0815 430.111L8.39293 426.149L5.44533 423.8L1.2375 422.765L-6.57599 422.555L-12.2142 420.77L-16.9944 416.271L-27.6326 400.307L-27.537 398.838L-25.0562 398.373V397.072L-27.3072 396.151L-29.9978 395.923L-32.6214 396.607L-34.6539 398.373L-35.9986 401.294L-35.6459 403.244L-32.1632 406.991L-33.2509 407.251L-33.966 407.75L-35.4547 409.825L-32.7455 410.322L-29.5583 412.404L-26.8876 415.497L-25.7813 419.077L-27.2886 419.659L-41.3226 407.926L-44.1845 406.239L-51.0544 404.965L-52.8572 403.134L-53 400.053L-46.407 382.33L-44.1932 374.279L-42.7244 365.713L-42.5245 357.264L-48.1242 316.194L-48.6966 314.069L-49.0405 313.635L-49.1547 312.637L-49.0405 311.664L-48.6966 311.22L-47.9901 311.459L-47.6747 311.997L-47.4748 312.535L-47.1309 312.773L-46.3673 313.883L-43.4482 329.951L-41.3499 335.493L-41.0445 337.807L-41.3214 339.806L-42.4661 342.671L-42.7244 345.001L-42.3233 347.865L-41.3214 348.452L-36.0544 345.477L-30.4547 341.005L-27.8113 340.061L-23.241 336.437L-18.5663 331.509L-17.9082 328.103L-18.6619 324.474L-20.3033 320.929L-22.1732 317.731L-26.5623 311.998V305.492L-27.8983 297.956L-30.9129 293.132L-34.9767 290.197L-44.0219 286.045L-46.4741 285.711L-47.5332 287.483L-47.4189 296.466L-47.6188 300.723L-48.334 305.491L-47.9044 308.984L-48.2198 310.332L-49.9369 309.785L-50.4237 308.675L-50.929 306.49L-51.3685 303.961L-51.9024 288.714L-51.5399 283.963L-48.7065 270.797L-48.334 265.838L-49.67 192.482L-49.1733 188.913L-48.334 185.246L-43.0671 166.811L-40.6919 161.083L-38.9462 158.317L-38.231 158.882L-37.7629 160.752L-36.6852 161.813L-36.7708 163.326L-39.4043 170.251L-40.3206 172.153V173.612L-39.5955 174.341L-38.8034 174.731L-36.6852 174.94L-36.2841 175.851L-35.826 177.907L-35.2064 179.964L-34.2528 180.883L-29.4441 181.759L-28.1565 182.653L-29.8451 183.677L-29.4155 185.636L-29.7309 189.068L-29.0443 191.07L-27.9852 191.91L-27.0689 191.373L-26.7349 189.936L-27.4413 188.159V186.702L-23.7488 185.48L-18.0535 185.323L-12.8449 186.398L-10.574 188.886L-9.48634 189.241L-3.68551 193.97L-2.06396 193.226L-0.556641 191.381L0.702358 188.999L1.58018 186.702H2.30529L5.85382 196.708L5.94942 198.336L5.5012 199.235L5.68248 201.243L6.44607 203.233L8.36436 204.79L10.6539 207.782L11.9986 208.629L14.0025 208.594L21.158 207.039L21.9303 206.65L22.5598 205.586L22.9695 203.952L23.1321 201.971L23.1607 198.865L23.3134 196.761L24 192.397L24.5054 191.176L25.1249 190.683L25.3733 189.989L24.7909 188.161L21.1555 185.249L19.9822 185.136L19.0944 184.624L18.5605 183.531L18.3892 181.684L17.864 179.792L15.8699 178.716L15.9171 176.529L17.4716 175.098L22.8342 174.734L30.3993 161.816L32.1637 160.763L36.9824 159.25L43.4512 158.963L43.6796 158.493L40.8748 157.432L35.7519 157.258L34.55 156.066L35.6377 152.254L37.3548 148.902L38.7479 147.09L42.479 144.285L48.0216 138.812L50.1969 138.297L51.4757 138.558L53.6411 139.648L54.9572 139.909L56.3305 139.525L57.0456 138.635L57.618 137.615L58.5529 136.83L60.614 136.752L63.3046 137.641L65.6327 139.421L66.6346 142.019L67.3312 147.029L68.9726 149.999L70.8611 152.098L72.3014 154.508L73.8472 159.015L70.5842 159.833L67.14 165.38L64.1638 166.187V167.778L64.6406 169.724L63.3717 171.609L60.1658 174.943L59.0682 177.963L58.9341 180.661L59.4208 187.433L60.3086 189.487L62.2356 189.14L64.1626 186.862L65.727 179.889L67.4628 179.412L69.581 179.837L71.4322 179.43L70.6972 177.391L69.7523 176.635L68.6262 176.896L67.4342 177.85L68.322 175.524L69.2383 173.858L70.059 172.018L70.6314 169.109H71.4322L70.7257 173.903L73.7888 174.632L77.9681 173.903L80.6016 174.268L82.1945 175.361L83.9788 174.997L85.5916 175.163L86.6606 177.853L86.3167 179.944L83.6261 183.908L82.5571 186.707L83.836 187.228L84.0843 188.164L84.16 189.455L84.9609 191.075L86.1057 192.244L89.0445 193.977L89.5213 194.86L89.8069 196.012L90.3035 196.922L91.4483 197.026L93.1369 193.467L93.8521 192.402L95.5121 193.962L96.9437 192.264L96.9052 189.57L94.2817 188.166L90.6462 190.349L90.4178 190.999L89.8839 191.19L88.6435 191.076L87.6415 190.496L87.5745 189.266L87.9271 188.243L88.2412 188.165L88.451 180.248L90.378 173.428L91.4272 167.383L91.4173 167.339L89.0421 161.82L87.8973 160.515L87.2864 160.028L84.9584 160.35L80.2452 162.54L79.0818 164.209L76.544 165.852L74.0632 166.008L73.0327 163.271L74.3488 160.689L79.7486 157.375L80.9703 153.781L81.6383 150.787L81.3999 149.307L78.471 148.262L77.2691 147.199L76.2485 145.779L75.4476 144.289L74.828 142.877L74.1601 140.707L73.7205 138.152L73.8447 135.5L74.4456 134.793L77.1362 130.526L77.4417 129.513L77.9954 128.405L77.8998 125.916L77.346 123.453L76.6023 122.326L75.2279 122.038L74.1886 121.304L72.3001 119.258L74.4854 113.89L76.6793 109.629L79.0545 106.154L82.69 102.389L83.5107 101.898L84.3885 101.6L85.4091 101.512L86.0287 100.828L86.678 97.7788L87.0592 97.0954L104.442 91.2204L108.316 91.3434L121.997 97.0954V98.6996L120.5 99.7073L120.394 101.039L121.3 102.301L122.875 103.116L124.478 102.967L125.623 101.855L129.897 95.019L131.834 91.126L133.981 88.0468L138.58 86.3358L142.454 83.8519L148.064 85.3268L160.572 83.8519L153.636 77.3531L150.125 76.0173L147.749 73.9956L146.49 73.5296L145.546 74.0565L141.425 79.7066L139.174 82.0775L136.674 83.2716L134.48 81.568L132.362 79.4071L130.13 80.0135L126.027 83.8506L121.304 85.8524L111.124 86.0102L84.2966 95.7472L81.9785 95.9746L79.756 94.9668L66.6371 83.8506L67.3808 86.6949L66.436 88.1512L62.5721 89.748L59.7101 91.9237L58.2128 92.6606L56.2287 92.6954L56.9637 91.3447L54.8554 89.9766L52.8328 90.4326L50.8289 92.0641L48.8919 94.2834L46.9935 94.0734L44.5898 96.4493L42.5485 99.0264L41.6806 99.4377L40.6786 96.5549L38.3506 95.4415L35.6787 95.731L33.6747 97.0979L35.3919 98.9643L31.1368 102.968L25.3174 106.068L21.1381 104.824L18.3904 105.428L15.6427 106.698L14.3837 108.256L13.7443 112.422L12.1699 114.958L10.3187 116.881L8.79272 119.26L8.12473 125.376L7.99064 125.865L7.79074 127.725L7.24691 128.799L6.47463 129.69L2.75351 135.501L0.111351 135.738L-1.14765 136.339L-1.68154 137.569L-2.55936 138.433L-4.48635 139.218L-6.41335 140.683L-7.29116 143.49L-6.28918 150.746L-6.40341 154.14L-8.16774 156.116V157.438L-3.48313 156.96L-2.40541 157.438L-1.52758 160.039L-2.23406 161.856L-3.76001 162.934L-5.28595 163.273L-6.65918 162.83L-9.40688 160.822L-10.9241 160.352L-12.3272 160.77L-14.6738 162.699L-16.1625 163.273V164.864L-10.5715 163.273L-8.89284 163.821L-6.43197 165.769L-5.2872 166.195L2.98444 162.57L4.71154 163.275L5.03559 164.839L4.71154 168.906V170.704L6.47711 173.535L7.26926 175.575L5.53348 178.708L4.33159 180.209L2.75723 180.893L1.09719 181.153L0.0666466 181.829L0.113831 182.731L1.58266 183.685L-0.792549 183.738L-4.05552 180.702L-6.92737 176.798L-8.16774 174.272L-9.23677 171.093L-11.8702 168.531L-15.1618 166.82L-18.1677 166.195L-20.2474 165.074L-22.7282 162.361L-25.0376 159.057L-26.5635 156.117L-27.8709 148.405L-28.6147 147.22L-30.2077 146.662L-33.5091 144.449L-35.4547 144.293L-33.7661 152.183L-33.1652 156.804L-33.4508 159.701L-35.1965 159.997L-36.0842 155.5L-36.3326 145.626L-34.9593 136.788L-32.3259 130.183L-11.2979 95.6304L-4.98176 89.0173L4.71154 73.5346L8.43265 69.9733L12.6306 70.0529L22.3996 73.5346L27.885 73.8776L38.4847 71.4334L43.1979 68.9892L48.8261 62.6893L50.9257 61.7213L80.2539 66.0343L90.9107 64.7495L101.529 60.7707L111.575 53.9352L120.419 43.9882L145.644 -3.07246L150.1 -9.75885L158.18 -18.8509L162.225 -26.6979L163.781 -27.8013L166.576 -31.9329L172.253 -33.0823L183.072 -32.2808L193.615 -34.0888L203.222 -38.4019L211.551 -44.5552L225.843 -59.4775L233.648 -65.3785L236.815 -66.6124L240.324 -67.0001L243.721 -66.1949L246.526 -63.8874L240.134 -61.4457L234.048 -55.5198L224.43 -40.5242L220.91 -27.3825L224.183 -17.5251L230.118 -8.47898L234.526 2.15388L231.11 11.7355L231.167 23.0754L233.648 45.3191L231.644 48.5647L225.652 53.0256L222.827 56.5508L218.687 65.3024L216.817 71.1786L215.471 80.477L212.56 90.8514L211.149 94.2809L210.157 95.7795L209.203 96.6207L207.924 97.0146L202.39 96.9364L200.692 97.375L198.555 98.0236L188.738 91.3422L181.468 83.4356L176.631 81.4425L172.72 77.4016L169.819 76.4783L167.453 77.8228L164.132 83.2852L161.88 83.8469L164.055 84.119L166.526 80.9057L168.587 79.4295L170.677 78.3845L173.101 79.4208L184.664 91.7088L188.499 93.6211L193.003 97.7589L195.579 98.6971L205.044 98.9332L207.229 100.168L203.937 104.294L203.222 106.053L202.66 108.898L202.02 114.759L201.619 116.333L202.469 119.847L203.748 130.799L204.253 139.418L205.082 143.968L207.964 153.043L208.956 154.471L210.101 155.723L210.378 157.133L208.765 159.011L207.811 159.081L205.054 157.785L203.575 157.428H198.299L196.458 158.255L194.35 160.342L192.374 158.228L190.16 156.558L187.623 156.063L184.665 157.428L182.051 159.533L180.954 159.977L179.065 160.342L177.291 161.221L173.676 164.203L169.382 165.767L164.068 169.781L147.696 172.152V173.611L153.02 174.565L170.622 169.102L174.543 166.643L176.261 166.182L176.652 165.721L176.719 164.722L176.947 163.723L177.815 163.262L178.769 163.514L180.333 164.609L181.068 164.853L182.327 164.54L183.767 163.678L184.961 162.479L185.466 161.079L186.248 158.191L188.099 157.756L191.945 159.009L191.649 159.792L191.058 161.81L193.099 162.21L198.815 163.323L203.69 163.027L206.829 161.08L209.634 160.019L211.809 164.722L212.382 171.785L210.349 177.844L202.45 183.95L196.631 190.572L195.581 191.065L194.751 197.984L194.35 199.922L195.237 202.337L194.694 205.39L193.368 208.208L191.946 209.936L195.553 209.746L196.897 208.623L196.755 200.571L197.127 194.728L198.31 191.897L203.224 188.154L207.106 182.9L209.176 181.495L211.59 183.055L212.009 184.409L212.639 188.976L212.753 190.337L213.268 191.039L216.741 193.967L225.538 199.023L235.107 200.156L262.956 195.734L266.849 196.183L270.684 198.331L272.43 200.339L276.208 207.034L283.478 214.422V215.743L280.759 218.437L279.299 223.322L278.716 228.963L278.611 233.962L277.323 238.665L266.532 254.127L261.065 257.917L259.004 260.803L258.375 263.603L258.68 270.16L257.039 276.574L253.338 277.346L249.254 274.329L246.525 269.44L249.54 268.926L250.78 267.785L251.391 265.116L251.067 262.301L249.883 261.442L248.358 261.167L246.954 260.085L244.14 259.071L241.229 262.558L238.586 267.159L234.828 271.586L235.648 276.491L237.194 281.855L237.709 285.4L236.565 286.873L234.695 287.789L232.701 288.02L231.241 287.48L230.057 285.733L228.893 281.7L228.035 279.643L228.97 278.641L230.954 277.192L232.041 276.763L231.202 274.415L230.172 273.291L225.324 271.825L224.255 272.031L221.642 273.755L218.36 274.398L216.337 272.752L214.553 269.801L212.025 266.558L214.639 266.292L218.56 263.09L220.764 262.248L222.424 263.485L224.456 265.683L226.46 266.498L228.035 263.553L226.051 260.187L226.185 257.558L229.619 250.569L228.035 250.595L226.346 249.907L224.8 248.651L223.627 247.033L222.339 246.156L219.306 247.583L217.693 246.241L217.255 249.072L216.616 250.835L215.585 251.755L213.954 252.013L213.096 253.148L209.947 260.083L207.085 263.792L200.75 269.044L197.907 273.033L196.266 277.971L197.048 281.055L198.985 283.933L200.816 288.256L201.588 293.578L201.102 297.631L199.661 301.307L197.543 305.484L200.358 304.1L202.419 303.844L202.981 305.33L200.042 311.947L199.757 314.626L199.948 319.922L199.843 323.579L199.671 325.189L199.213 326.953L196.398 330.657L195.95 332.138L195.378 332.129L194.109 332.963L192.744 334.257L191.942 335.508L192.525 336.045L193.374 338.104L193.822 340.316L192.791 341.829L192.41 342.849L191.799 343.878L190.693 344.337L189.253 343.954L188.155 342.951L186.333 340.052L185.807 338.7L185.463 337.152L184.958 335.604L183.87 334.226L182.382 333.697L170.99 334.226L169.473 334.754L168.528 335.996L167.793 337.425L166.982 338.498L163.939 339.723L157.757 339.349L154.904 340.055L157.851 343.345L174.623 347.068L175.806 348.002L175.386 350.203L173.45 354.457L172.476 358.099L172.762 359.704L174.393 360.085L177.455 360.009V361.452L172.646 364.208L171.243 366.548L172.579 369.98L172.14 370.335L171.052 371.529L168.294 369.801L155.415 373.588L149.547 376.764L146.084 377.078L138.9 374.232L134.76 370.555L133.691 369.979L121.555 369.91L118.807 368.555L118.435 369.351L118.215 369.928L118.091 370.555L118.005 371.529L120.447 372.707L128.882 372.825L130.408 373.766L136.476 380.056L137.726 382.526L138.575 384.759L139.758 386.383L142.086 387.017H153.297L151.38 389.393L145.293 394.227L142.031 398.45L140.446 399.54L137.717 399.903L136.725 400.797L136.515 402.738L136.477 404.679L136.076 405.565L128.692 407.429L126.02 409.369L124.398 409.816L122.987 409.487L120.353 408.34L118.807 408.398L119.113 409.251L119.609 409.816L117.911 412.236L113.57 413.668L111.595 415.48L113.656 416.786L115.86 416.643L121.632 415.126L122.701 414.477L123.827 414.165L130.601 417.856L131.078 420.189L130.573 423.019L129.285 425.494L127.682 426.596L123.713 427.404L121.996 428.312L122.617 430.608L124.057 433.737L124.477 435.376L124.152 437.696L123.466 439.486L123.647 441.023L126.022 442.544L127.473 443.896L128.856 445.81L129.208 447.833L127.605 449.461V450.997L128.807 452.364L133.148 459.843L134.588 460.463L135.981 461.812L136.478 465.189L136.038 467.592L135.208 469.074L134.436 470.882L134.073 474.196L133.443 475.702L131.936 476.756L130.085 477.375L128.482 477.583L121.594 476.304L120.009 476.739L119.036 477.834L118.263 479.198L117.204 480.518L114.381 482.308L112.664 483.026L111.166 483.31L110.222 484.197V486.01L111.195 487.513H113.218V488.925L109.763 488.808L108.16 489.217L106.729 490.461L107.912 491.345L109.381 491.696L112.768 491.729L114.324 492.481L116.022 494.326L118.809 498.731L115.775 502.742L113.771 504.643L111.596 505.844L106.243 506.936L104.125 508.535L105.127 511.434L106.577 511.476L113.218 508.778L116.204 508.978L117.206 508.778L118.065 508.112L118.886 507.129L119.859 506.236L121.195 505.845L123.733 506.929L128.456 512.185L130.888 514.232L137.328 515.981L138.903 517.154L139.799 520.132L142.394 535.634L142.68 536.556L142.489 537.178L141.363 538.074L139.617 538.124L137.967 537.127L136.612 536.936L135.677 539.468L137.146 539.958L138.539 540.838L139.704 542.049L140.486 543.525L140.934 545.243L141.163 547.606L140.657 549.695L138.93 550.607L137.566 549.728L135.896 545.915L134.875 545.035L130.001 545.4L128.483 545.035L126.279 543.724L126.442 542.911L127.396 542.131L127.605 540.861L125.536 537.823L124.763 535.988L125.603 535.158L128.732 533.938L128.102 531.595L125.307 529.975L121.997 530.989L121.349 532.202L119.803 536.354L118.487 538.621L117.752 540.173L117.208 540.861L116.32 541.152L114.422 540.87L113.601 541.558L111.597 543.923L106.713 548.103L105.13 550.607L104.357 554.899L104.5 554.908L104.432 554.962L102.7 555.551L100.712 555.32L98.3492 553.078L96.2285 553.563L94.9447 554.72L93.2723 555.183L92.1337 556.373L90.3768 556.698L81.8221 556.667L79.7498 555.826L78.8894 553.406L78.5417 550.568L78.0091 548.516L76.0461 546.767L51.1827 540.867L41.9737 537.073L32.6069 535.448L29.8692 535.87L21.8843 538.886L17.5585 538.695L13.4438 537.406ZM386.773 570.879L385.437 572.375L384.235 572.87L383.196 573.565L382.289 575.738L386.917 577.804L386.469 582.189L382.729 586.473L377.5 588.205L359.259 584.178L353.344 585.556L347.734 588.205L343.298 592.346L340.654 591.892L329.74 585.366L322.585 579.075L309.696 570.81L303.885 569.52L297.607 566.568L291.263 565.037L288.773 562.803L287.59 559.724L288.354 556.287L291.293 554.556L294.871 555.136L298.201 554.872L300.366 550.612L298.468 549.899L296.875 548.655L290.644 540.841L289.891 539.472V535.961L291.484 532.721L296.36 526.812L298.02 527.635L314.85 524.143L317.703 525.507L323.265 530.028L325.327 530.993L327.416 532.746L330.936 540.508L333.731 542.259L336.546 542.907L357.411 554.77L356.285 551.223L354.93 549.019L354.835 547.262L357.411 545.039H360.617L363.46 543.712L364.625 543.529L363.566 541.314L363.28 538.766L363.461 536.184L363.824 533.893L372.774 542.086L373.499 545.04L376.275 548.656L378.039 550.049L379.986 550.613L378.803 551.74L378.306 552.006L380.023 555.634L385.9 560.536L387.179 562.49L387.494 565.816L387.981 567.314V568.504L386.773 570.879ZM223.227 536.692L225.154 538.577L227.387 539.98L228.971 541.839L228.914 545.041L230.02 545.847L231.242 546.443L222.045 548.583L219.526 551.367L218.076 552.006L215.404 550.771L195.235 528.619L193.327 524.022L192.63 520.828L194.347 522.749L204.298 528.336L207.227 530.995L209.984 535.447L211.434 537.324L213.151 538.079L214.926 538.07L216.329 537.581L216.854 535.946L216.033 532.507L217.703 534.94L219.125 541.041L220.394 542.262L222.826 542.286L224.486 541.855L224.802 540.229L223.227 536.692ZM453.824 510.04L464.089 512.181L467.943 515.736L469.832 522.75L469.603 524.978L468.534 526.209L466.607 526.716L463.86 526.815L450.007 523.772L445.762 524.396L441.727 526.266L437.749 529.598L431.509 538.152L429.277 539.472L425.871 538.899L418.4 535.163V533.891H420.06L419.535 531.806L420.032 530.195L421.12 529.048L422.398 528.316L421.807 527.71L420.691 526.114L420.062 525.54L422.667 522.58L424.193 521.815L425.671 522.747L426.531 521.225L425.671 518.429L427.561 518.604L430.394 520.585L432.14 521.225L433.314 521L437.13 519.403L438.552 518.429L437.922 516.407L437.894 514.759L438.409 513.535L439.411 512.836V511.437L435.586 508.688L434.546 507.247L433.945 505.196L434.347 503.787L435.634 503.062H437.752L440.3 507.612L444.231 509.411L453.824 510.04ZM171.785 521.227L173.483 524.445L178.082 538.528L178.006 540.528L176.365 540.968L173.026 540.869L171.28 541.789L168.991 543.606L166.701 544.908L165.013 544.278L163.086 542.586L157.686 540.876L155.711 539.473V538.079L158.831 536.51L162.513 538.12L166.215 540.743L169.459 542.262V540.867L163.849 535.912L158.525 534.002L157.314 533.894L156.14 534.343L154.452 536.029L153.307 536.694L148.728 536.436L144.768 533.223L142.46 527.864L142.833 521.228H142.098V519.956L144.693 521.777L147.479 524.98L150.216 527.374L152.573 526.817L152.076 526.094L151.304 524.698L150.846 523.351L151.304 522.752L151.944 522.303L151.133 521.305L146.267 517.827L145.456 516.196L146.896 514.24V512.841L137.69 513.716L136.087 513.54L134.923 512.641L133.502 512.432L132.252 511.916L131.622 510.042L132.042 509.134L134.256 507.468L134.885 505.851L132.728 505.952L130.781 506.702L128.893 507.044L126.889 505.852V504.344L137.23 499.391L141.371 498.74L146.237 499.69L153.221 508.018L156.942 510.042L162.132 510.868L165.872 513.149L168.877 516.687L171.785 521.227ZM270.683 507.249L271.504 501.465L275.435 491.328L279.976 483.501L282.61 484.721L277.01 510.04L274.778 516.759L268.662 529.05L257.327 566.717L256.182 569.223L254.569 570.092L251.793 570.191L250.39 568.257L247.404 556.288L246.125 554.06L244.551 552.262L240.915 549.229L243.759 549.03L245.581 548.234L247.06 546.518L248.911 543.531L249.999 540.113L250.686 539.134L251.792 540.172L252.383 540.495L255.379 539.475L255.112 537.458L254.597 535.166L253.566 536.046L252.554 536.337L251.562 536.046L250.513 535.166L252.163 530.257L254.652 526.616L261.197 518.973L264.022 516.926L270.683 507.249ZM-8.17022 445.255L-11.0706 446.43L-14.1623 443.172L-16.8528 438.115L-20.5355 428.32L-21.3177 423.851L-20.1344 420.905L-16.165 419.844L-15.7267 425.99L-13.7799 427.058L-11.3947 426.646L-9.69617 428.32L-9.73466 430.743L-11.242 435.359L-10.9266 437.427L-10.0389 439.696L-9.21815 443.551L-8.17022 445.255ZM248.559 503.065H243.302L241.346 503.416L239.161 504.45L237.138 506.016L235.678 508.016L233.55 510.141L231.041 509.816L226.433 507.25L218.591 506.617L216.035 505.85L214.9 505.067L213.983 504.141L212.953 503.382L211.588 503.065L208.659 503.349L207.114 503.19L197.907 497.336L194.511 497.035L193.615 498.594L193.548 503.064L191.773 501.713L189.016 498.478L187.07 497.334L184.666 497.285L180.24 498.411L178.179 497.334L187.166 490.449L188.74 487.518L186.708 484.603L185.239 481.243L183.693 478.543L181.47 477.59L179.706 478.099L178.37 478.852L176.997 479.37L175.06 479.119L172.398 476.384L170.872 475.757L169.46 477.588L169.804 480.799L173.868 487.041L173.458 490.464L172.876 490.723L168.754 490.047L168.448 489.463L168.62 488.628L168.591 487.517L168.925 487.667L169.249 486.841L169.135 485.104L167.436 480.55L167.169 478.35L167.436 476.184L168.19 474.202L168.047 472.571L166.244 471.475L161.541 470.287L160.062 469.349L158.746 468.193L158.184 467.188L157.936 466.066L156.848 464.207L156.581 462.967L156.848 461.711L157.936 459.85L158.184 458.694L157.936 456.431L156.848 452.816L156.581 451.651L156.944 444.55L155.742 443.627L153.91 443.476L150.504 443.845L148.949 443.239L147.289 441.761L144.435 438.064L146.41 437.325L148.604 437.056L150.531 436.283L151.704 433.972L145.302 431.147L146.266 431.348L149.299 431.147L148.087 428.723L145.95 427.411L141.294 426.78L139.653 426.098L135.683 421.14V419.843L138.822 421.274L142.132 424.171L145.395 426.3L148.43 425.501L136.848 415.159L132.497 414.199L133.394 412.049L134.52 411.189L135.836 410.734L137.363 409.824L141.742 404.155L148.068 402.881L150.215 403.269L150.616 404.366L150.673 406.105L151.704 408.407L157.342 411.502L163.448 409.318L175.06 401.328L190.22 396.245L195.381 392.426L198.272 391.412L201.421 391.184L202.356 391.412L202.431 392.037L203.166 394.986L203.224 395.653L204.874 395.037L205.283 393.465L204.892 389.214L206.514 388.774L210.121 390.465L218.211 396.1L220.042 398.372L221.493 400.922L222.523 402.281L223.629 402.88L225.776 403.142L227.723 403.877L231.272 406.374L229.355 405.598H227.523L226.169 406.677L225.635 409.115L226.064 410.026L227.791 411.418L228.04 412.657L227.429 414.385L226.465 414.857L225.292 414.933L224.033 415.49L219.644 421.832L221.571 425.284L225.73 425.09L228.04 420.494L229.356 420.848L236.912 416.898L241.349 415.491L241.864 414.842L241.635 413.427L241.063 412.011L240.519 411.369L239.47 411.091L238.344 410.383L237.399 409.43L236.912 408.41L237.256 406.588L238.716 407.271L240.272 408.874L240.92 409.827L242.409 407.525L242.028 404.261L240.893 400.615L240.121 397.077L240.693 398.031L242.506 399.914L242.554 396.417L241.782 391.263L241.801 389.869L244.033 389.742L247.467 393.63L253.001 402.885L253.23 404.21L253.344 406.057L253.601 407.703L254.202 408.411L254.487 408.867L256.987 411.371L257.73 414.229L257.482 415.897L256.394 417.061L252.979 419.285L247.531 421.651L239.43 420.893L237.426 421.33L236.033 422.559L235.404 425.193L236.491 426.505L238.38 426.581L240.116 425.504L239.572 424.435L239.448 423.779L240.316 421.658L242.634 422.238L250.514 424.09L252.27 425.672L263.843 442.554L264.597 444.368L267.564 453.272L268.261 456.635H267.393L266.01 454.454L263.873 453.045L261.926 453.615L261.068 457.288L261.736 459.811L264.865 464.838L265.8 467.895L266.019 472.322L265.724 476.388L264.942 479.859L263.158 484.062L262.814 485.591L262.671 489.7L262.29 490.777L259.408 494.659L258.302 497.163L257.519 499.499L256.46 501.517L254.6 503.068L253.169 503.418L248.559 503.065ZM477.103 374.238L483.914 391.412L484 392.299L479.879 397.072L478.095 397.621L475.93 398.939L473.954 400.585L472.675 402.105L470.137 402.839L467.618 398.931L465.939 393.239L465.901 388.573L467.17 385.935L468.687 384.175L470.195 382.805L471.435 381.341L472.694 378.751L474.678 373.57L476.242 371.537L476.729 372.782L476.91 373.341L477.103 374.238ZM236.031 337.075L237.634 334.446L238.569 331.168L238.473 327.608L236.909 324.097L234.762 322.538L232.387 321.515L230.869 319.29L231.242 314.069L232.444 311.331L234.218 309.487L235.725 309.948L236.593 318.744L238.473 322.376L241.116 324.737L244.103 325.658L243.062 327.728L242.595 329.951L242.709 332.157L243.3 334.234L245.323 337.111L246.726 336.277L247.728 334.048L248.559 332.805L248.911 334.201L247.241 337.264L244.103 341.363L243.52 345.138L243.644 352.105L242.5 355.756L238.703 359.32L234.59 358.183L231.442 353.311L230.421 345.647L231.089 341.414L232.31 339.662L234.008 338.777L236.031 337.075ZM409.651 538.079L411.826 537.806L414.097 537.091L416.225 537.042L418.028 538.776L421.32 543.805L424.869 547.96V549.229L414.498 557.754L412.791 559.716L408.202 568.513L407.582 570.191L406.409 571.043L403.26 574.861L402.02 575.737L400.313 578.563L400.255 585.003L401.572 596.501L401.286 603.759L398.947 604L396.505 600.886L395.971 598.019L394.292 595.712L390.457 588.125L389.579 585.558L389.75 581.349L391.162 578.087L394.386 572.964L392.011 572.452L390.361 571.327L389.95 569.252L391.181 565.902L389.845 565.108L389.119 564.065L387.975 561.732L382.536 556.035L382.107 555.099L381.582 553.4L381.333 551.768L381.476 550.681L381.448 549.588L380.704 547.963L378.663 545.599L376.85 544.157L375.571 542.141L375.094 538.083L375.066 534.346L374.674 531.464L373.491 529.453L371.087 528.322V526.817L375.581 523.234L376.697 522.752L378.376 523.375L380.647 526.178L381.934 526.817L383.203 526.02L385.875 523.151L386.372 523.45L387.135 524.581L388.795 523.65L391.181 521.23V519.957L389.95 518.359L387.746 512.116L386.373 510.042L378.502 506.285L376.27 505.851L375.641 505.417L374.085 503.493L373.121 503.068L365.708 502.634L363.494 501.416L361.585 499.615L359.887 497.337L366.183 498.688L378.567 504.466L384.692 505.849L382.097 501.097L374.836 495.633L371.811 490.467L381.934 488.597L382.592 487.77L382.287 486.125L379.759 484.003L373.09 484.505L371.086 481.806L372.822 479.951L373.814 477.542L373.623 475.184L371.81 473.503L369.167 473.552L367.191 475.343L365.503 477.618L363.814 479.123L362.268 478.989L357.946 476.998L349.131 474.781L347.003 473.502L345.4 474.355L337.291 470.707L335.783 471.075L332.578 472.916L330.927 473.502H322.847V474.907L325.251 476.312L321.196 476.162L318.277 475.091L316.445 472.171L315.644 466.487L317.352 467.751L319.079 467.827L320.51 466.503L321.245 463.673L320.043 464.595L318.793 465.038L316.045 465.197L315.673 464.075L315.997 459.056L315.243 457.924L313.135 456.642L306.686 450.679L305.598 448.765L306.668 448.262L308.366 448.061L309.749 447.356L309.969 445.257L309.053 444.234L307.374 443.746L305.571 443.654L304.369 443.848L303.558 444.965L303.025 446.703L302.165 448.062H300.363L299.628 447.139L297.967 442.555V441.026L301.116 441.346L302.795 441.187L303.968 440.322L304.999 438.969L306.343 437.859L307.812 437.077L309.167 436.8L311.638 435.682L312.792 433.21L312.668 430.738L311.237 429.611L311.695 427.516L310.713 422.861L308.366 415.491L306.897 412.913L305.4 411.168L303.577 410.173L301.163 409.827L299.074 411.337L297.738 411.742L297.165 410.595L297.385 407.804L298.063 406.295L299.189 405.704L300.764 405.578L303.855 404.413L305.086 401.426L304.762 397.526L303.169 393.547L297.987 386.971L292.282 383.538L279.469 380.069V378.512L297.967 380.069L296.012 376.572L288.694 373.38L285.879 371.542L284.667 369.516L283.961 367.94L283.016 366.702L281.069 365.718L274.953 365.261L273.083 364.167V362.87L291.553 365.719L295.379 365.058L302.706 362.124L306.761 361.463V362.871L305.463 362.685L304.223 362.769L303.021 363.226L301.962 364.167L303.803 367.804L306.836 370.652L310.262 371.702L313.238 369.991L308.362 365.719L309.965 364.167L311.063 365.295L313.018 365.787L317.245 365.719L319.143 364.956L323.131 362.081L327.148 361.165L328.971 360.147L330.354 358.204L330.926 355.106L331.05 353.476L331.604 350.597L331.718 349.272L331.299 347.616L329.257 344.616L328.522 342.925L331.509 344.923L334.39 345.416L337.119 344.252L339.657 341.369L343.664 342.254L346.908 336.573L347.528 328.298L343.645 321.371L340.248 319.938L332.73 319.384L323.381 315.819L320.729 313.49L319.641 309.795L334.639 317.048L337.73 316.306L355.799 319.172L357.946 321.218L362.812 320.937L371.084 318.379L375.349 315.735L377.752 315.257L379.097 317.074L378.582 319.172L375.29 323.162L374.288 325.667L375.663 327.856L374.899 329.244L373.011 329.551L371.084 328.53L371.332 327.763L371.809 325.668L368.079 325.873L366.562 326.699L365.417 328.531L371.228 338.796L373.45 344.518L371.809 348.64L370.025 348.954L366.371 347.951L364.615 348.64L362.468 351.749L361.094 352.896L358.928 352.922V354.475L360.865 355.104L366.647 354.475L368.222 353.762L370.073 352.31L372.134 351.214L374.291 351.486L375.073 353.151L376.294 356.581L377.21 359.941L377.096 361.468L367.669 363.182L365.59 364.047L364.732 365.353L366.22 367.023L367.909 367.277L373.176 366.871L374.292 366.371L375.18 365.32L377.135 367.329L379.979 371.549L380.818 374.294L380.742 375.319L380.056 376.581L379.102 380.077L381.192 378.105L382.709 376.133L387.603 365.348L387.852 365.085L387.976 364.95L387.719 363.458L386.631 360.811L386.374 360.03L386.747 357.637L387.653 354.633L389.58 349.946L391.326 348.085L395.477 346.888L397.575 345.664L399.483 339.763L397.079 332.938L394.313 326.799L395.172 322.811L397.271 322.99L401.402 327.404L403.587 328.537L404.713 329.448L404.674 331.552L404.198 333.901L403.988 335.535L404.493 338.182L404.941 339.135L405.495 339.772L406.383 341.379L408.587 347.474L410.666 356.085L411.01 364.153L407.986 368.578L403.749 367.036L401.717 367.325L400.859 370.765L400.02 373.155L395.899 377.168L394.391 380.08L396.767 380.604L400.134 379.047L402.834 376.177L403.187 372.849L405.057 372.061L406.984 372.68L408.662 374.451L409.655 377.101L406.01 375.847L405.524 376.33L406.259 378.234L408.043 379.682L411.993 381.358L413.023 376.999L415.714 370.384L416.066 365.73L411.192 342.935V335.535L410.762 332.548L407.986 321.381L406.163 318.465L404.036 317.347L401.488 317.501L392.53 321.185L389.153 321.798L387.178 319.948L389.162 314.805L395.229 309.582L406.383 302.639L424.309 287.297L433.659 282.03L443.428 282.416L453.559 288.281H461.908L464.169 289.513L468.271 293.252L471.754 294.75L477.832 299.896L476.247 303.203L471.439 309.805L469.721 313.346L466.535 321.688L465.028 324.117V325.677L468.263 330.403L469.923 333.622L470.638 336.328L471.172 340.258L472.45 344.85L474.053 348.963L475.522 351.494L475.026 353.532L474.777 356.316L474.643 360.746L473.975 364.342L473.841 365.733L473.994 366.733L474.414 367.8L475.52 370.004L473.058 373.232L468.344 382.426L463.918 385.514L463.155 388.058L462.028 390.535L459.433 391.431L457.506 390.737L456.123 389.588L454.587 388.666L452.231 388.59L443.759 393.534L441.498 395.908L434.037 403.734L434.019 403.759L428.142 415.91L431.281 426.797L436.976 431.895L438.98 432.576L446.193 433.089L448.158 433.988L453.234 438.318L455.886 441.51L457.041 444.567L457.241 448.109L457.775 451.096L459.435 456.648L457.699 458.828L457.041 459.473L450.925 463.847L426.348 469.633L424.497 471.659L421.491 473.584L419.116 477.064L417.704 481.244L418.4 484.737L417.513 486.508L416.521 487.26L415.48 487.093L414.383 486.141L415.25 481.729L413.906 478.937L411.531 478.167L409.231 479.84L408.182 480.843L407.266 481.194L406.636 481.913L406.379 484.035L407.019 484.879L410.386 487.535L420.222 488.395L424.687 489.915L425.669 494.673L425.011 496.692L424.267 497.543L423.408 497.977L422.397 498.752L419.974 500.096L418.809 501.179L419.658 501.68L424.066 511.454L423.942 515.342L422.377 517.44L419.974 518.288L417.226 518.446L415.413 519.171L411.474 522.215L408.783 522.764L404.691 521.042L398.336 514.992L394.386 514.251L394.311 515.225L394.502 515.459L394.817 515.45L395.17 515.65L394.53 516.05L394.178 516.525L393.74 516.941L392.862 517.175L393.377 521.069L392.538 523.398L391.44 525.41L391.183 528.336L392.041 530.621L393.587 531.975L395.361 532.192L396.85 531.012L396.544 530.264L395.972 528.336L396.993 528.203L399.979 526.831L400.932 527.969L402.602 531.717L402.831 532.523L403.918 533.337L407.725 537.074L409.651 538.079ZM347.733 161.816L347.417 158.677L348.743 157.555L358.742 156.485L363.818 154.509V156.11L363.321 156.145L362.94 156.432L362.215 157.432L360.135 158.424L358.522 160.598L357.148 163.015L355.803 164.858L353.828 165.665L351.424 165.404L349.182 164.11L347.733 161.816ZM32.7969 151.471L31.2511 153.456L26.3951 157.432L25.7942 161.12L16.4448 163.711L13.1632 165.519L11.9986 164.893L8.86971 157.867L7.59084 156.11L4.70905 153.047L1.89431 151.602L1.15058 151.471L-2.48487 152.873L-3.68675 152.673L-3.28571 150.139L-2.73195 149.068L-1.85413 148.154L-0.804962 147.474L0.301319 147.213L0.835213 146.272L0.644005 144.207L0.224331 142.177L-0.09972 141.358L3.15331 138.899L11.4535 137.722L14.3825 133.91L12.9137 134.058L11.4535 133.901L10.0703 133.43L8.79148 132.584L9.44954 130.542L11.7962 127.365L12.7796 125.112L12.3984 125.287L12.15 123.523L11.9973 119.993L12.3698 119.241L13.2762 119.18L14.3167 119.329L15.1188 119.26L18.486 117.983L25.3646 116.829L28.7989 114.871L31.3653 115.772L33.7219 112.675L37.6715 104.457L40.362 106.207L42.0792 103.799L43.3953 100.987L44.8741 101.513L44.1962 103.247L42.8217 105.927L42.4778 107.52L42.7062 108.448L43.8795 111.44L44.1465 113.259L43.8795 113.714L42.4765 120.726L41.5316 123.4L40.9307 124.369L40.0715 125.112L40.043 122.561L39.452 120.918L38.5555 119.904L37.6677 119.258L34.8915 121.548L34.4048 122.326L34.0323 124.589L34.3377 125.968L34.8716 126.964L35.2727 128.063L36.2262 135.211L37.2568 137.409L39.2694 138.299L38.5257 139.371L37.782 139.859L36.9513 139.972L36.0065 139.911L36.8744 140.539L37.6665 141.359L36.112 143.747L34.3464 148.6L32.7969 151.471ZM304.37 24.5615L307.605 24.482L308.96 25.0039L309.971 26.0477L310.811 28.682L310.72 30.9758L309.853 32.8298L307.246 32.288L304.474 31.2939L295.487 33.4709L297.375 35.0876L298.72 38.3183L298.361 41.8348L295.555 44.9624L293.955 47.598L292.972 50.5206L291.062 52.8604L287.435 53.7277L285.097 51.8166L282.031 45.9665L277.896 45.1774L274.644 43.4477L272.569 41.4347L270.68 39.2627V37.9033L274.6 37.0434L278.451 33.2634L281.421 30.5782L286.141 30.2849L288.863 29.4425L290.93 27.0927L299.63 27.1524L304.37 24.5615Z" fill="url(#paint0_linear_1133_4094)"/>
<defs>
<linearGradient id="paint0_linear_1133_4094" x1="215.5" y1="340.96" x2="216" y2="631.5" gradientUnits="userSpaceOnUse">
<stop stop-color="#FFDE86"/>
<stop offset="0.635417" stop-color="#FFCF4C"/>
<stop offset="1" stop-color="#FFCE48"/>
</linearGradient>
</defs>
</svg>
