<svg width="20" height="20" viewBox="0 0 20 20" fill="none" xmlns="http://www.w3.org/2000/svg">
<path fill-rule="evenodd" clip-rule="evenodd" d="M6.34027 0.268756C6.14092 0.440252 6.02702 0.662356 6.0211 0.890979C6.016 1.08653 6.4192 2.55936 6.91698 4.16387C7.41488 5.76837 7.82222 7.21797 7.82222 7.38508C7.82222 8.01181 7.63994 8.06135 5.33452 8.06135C4.17126 8.06135 3.13612 8.02947 3.03443 7.99036C2.93274 7.95136 2.57565 7.54994 2.24095 7.09851C1.58483 6.21353 1.37067 6.04653 0.89126 6.04653C0.490549 6.04653 0 6.53933 0 6.94194C0 7.1145 0.161542 7.81021 0.358994 8.48814L0.718105 9.72061L0.358994 10.9531C0.161542 11.631 0 12.3267 0 12.4993C0 12.9019 0.490549 13.3947 0.89126 13.3947C1.37067 13.3947 1.58483 13.2277 2.24095 12.3427C2.57565 11.8913 2.93274 11.4899 3.03443 11.4509C3.35692 11.3271 7.34981 11.3724 7.59301 11.5025C7.95686 11.6974 7.88136 12.1672 7.06228 14.802C5.87141 18.6327 5.92877 18.3904 6.11141 18.8248C6.3821 19.4686 7.4432 19.6658 7.98139 19.1725C8.14127 19.0257 9.27229 17.2791 10.4945 15.291C11.7167 13.3028 12.7991 11.6096 12.8996 11.528C13.0342 11.419 13.8125 11.3799 15.8508 11.3799C17.9975 11.3799 18.6911 11.3424 18.9393 11.2133C20.1015 10.6087 20.2497 9.11877 19.2233 8.35764C18.9291 8.13945 18.6654 8.11587 15.9066 8.06135C13.9748 8.02318 12.8794 7.95705 12.8251 7.87539C12.7787 7.8057 11.7079 6.08434 10.4454 4.05009C9.18293 2.01596 8.03769 0.273024 7.90045 0.176906C7.51384 -0.0939092 6.70661 -0.0463849 6.34027 0.268756Z" fill="white"/>
</svg>
