<svg width="25" height="16" viewBox="0 0 25 16" fill="none" xmlns="http://www.w3.org/2000/svg">
<path fill-rule="evenodd" clip-rule="evenodd" d="M6.16433 1.52713C-0.179729 3.55522 0.309871 3.36796 0.111589 3.84251C0.0196187 4.06248 -0.02435 4.33874 0.0136944 4.45643C0.282257 5.28736 0.354909 5.35705 2.30169 6.65222C3.38317 7.37163 4.39331 8.0735 4.54643 8.21169C4.69956 8.35 5.4128 9.35741 6.1315 10.4506C6.85008 11.5437 7.59615 12.5508 7.78934 12.6883C8.29707 13.0499 8.99206 13.041 9.34703 12.6685C9.55313 12.452 10.0547 11.0094 11.2415 7.21862C12.1294 4.38307 12.886 1.90307 12.9228 1.70751C13.0665 0.945793 12.1648 -0.0217891 11.332 0.00037391C11.0972 0.00665539 8.77174 0.693708 6.16433 1.52713ZM15.6049 3.03172C15.3882 3.20724 14.9662 4.398 13.6161 8.64404C12.0393 13.6025 11.9122 14.068 12.0273 14.4669C12.1717 14.9669 12.8092 15.5779 13.2963 15.683C13.813 15.7945 24.3304 12.4328 24.6327 12.0595C24.933 11.6885 24.8452 10.8739 24.4596 10.4544C24.3054 10.2867 23.2834 9.55285 22.1886 8.8236L20.1981 7.49786L18.8555 5.49157C18.117 4.38816 17.3762 3.35906 17.209 3.20487C16.7909 2.81921 15.976 2.73127 15.6049 3.03172Z" fill="white"/>
</svg>
